<?xml version="1.0" encoding="utf-8"?>
<!-- Generator: Adobe Illustrator 22.0.1, SVG Export Plug-In . SVG Version: 6.00 Build 0)  -->
<svg version="1.1" id="Layer_1" xmlns="http://www.w3.org/2000/svg" xmlns:xlink="http://www.w3.org/1999/xlink" x="0px" y="0px"
	 viewBox="0 0 24.9 23.2" style="enable-background:new 0 0 24.9 23.2;" xml:space="preserve">
<style type="text/css">
	.st0{fill:#FFFFFF;}
</style>
<path class="st0" d="M0.5,12.9c0,0.3,0.1,0.5,0.3,0.7s0.4,0.3,0.7,0.3h1.7c0.3,0,0.5-0.1,0.7-0.3s0.3-0.4,0.3-0.7s-0.1-0.5-0.3-0.7
	s-0.4-0.3-0.7-0.3H1.5c-0.3,0-0.5,0.1-0.7,0.3C0.6,12.4,0.5,12.6,0.5,12.9z M2.3,19.1c0,1,0.3,1.8,1.1,2.5c0.7,0.7,1.5,1.1,2.5,1.1
	h6.9c1,0,1.8-0.4,2.5-1c0.7-0.7,1-1.5,1-2.5c0-0.5-0.1-0.9-0.2-1.2c0.8-0.5,1.5-1.2,2-2.1s0.7-1.8,0.7-2.8c0-0.8-0.2-1.6-0.5-2.3
	S17.5,9.4,17,8.9s-1.2-1-1.9-1.3c-0.7-0.3-1.5-0.5-2.3-0.5c-1.1,0-2.1,0.3-3,0.8s-1.6,1.3-2.2,2.2c-0.5,0.9-0.8,1.9-0.8,3v0.3
	c-1,0.6-1.7,1.4-2,2.5C4,16.1,3.4,16.6,3,17.2C2.5,17.6,2.3,18.3,2.3,19.1z M3.8,4.9c0,0.3,0.1,0.5,0.3,0.7l1.6,1.7
	c0.5,0.4,0.9,0.4,1.4,0c0.2-0.2,0.3-0.4,0.3-0.7S7.3,6.1,7.1,5.9L5.5,4.3C5.2,4.1,5,4,4.7,4C4.4,4,4.2,4.1,4,4.3S3.8,4.7,3.8,4.9z
	 M4.2,19.1c0-0.4,0.1-0.8,0.4-1.1s0.6-0.5,1-0.5l0.6-0.1c0.1,0,0.2-0.1,0.2-0.2l0.1-0.6c0.1-0.6,0.3-1.1,0.7-1.4
	c0.4-0.4,0.9-0.6,1.5-0.6s1.1,0.2,1.5,0.6c0.4,0.4,0.7,0.9,0.8,1.4l0.1,0.6c0.1,0.3,0.2,0.3,0.3,0.3h1.3c0.4,0,0.8,0.2,1.1,0.5
	s0.5,0.7,0.5,1.1c0,0.5-0.2,0.8-0.5,1.1s-0.7,0.5-1.1,0.5H5.8c-0.4,0-0.8-0.2-1.1-0.5C4.4,20,4.2,19.6,4.2,19.1z M8.7,12.7
	c0.1-1.1,0.5-2,1.3-2.8c0.8-0.7,1.7-1.1,2.8-1.1s2.1,0.4,2.8,1.2c0.8,0.8,1.2,1.8,1.2,2.9c0,0.7-0.2,1.4-0.5,1.9
	c-0.3,0.6-0.8,1.1-1.4,1.5c-0.6-0.5-1.3-0.7-2-0.7c-0.3-0.9-0.8-1.6-1.5-2.1s-1.6-0.8-2.5-0.8C8.8,12.7,8.7,12.7,8.7,12.7z M11.8,4
	c0,0.3,0.1,0.5,0.3,0.7S12.5,5,12.8,5s0.5-0.1,0.7-0.3s0.3-0.4,0.3-0.7V1.6c0-0.3-0.1-0.5-0.3-0.7c-0.2-0.2-0.4-0.3-0.7-0.3
	s-0.5,0.1-0.7,0.3s-0.3,0.4-0.3,0.7C11.8,1.6,11.8,4,11.8,4z M18.1,19.2c0,0.3,0.1,0.5,0.3,0.7l1.6,1.6c0.4,0.4,0.9,0.4,1.4,0
	c0.2-0.2,0.3-0.4,0.3-0.7c0-0.3-0.1-0.5-0.3-0.7l-1.7-1.6c-0.2-0.2-0.4-0.2-0.7-0.2c-0.3,0-0.5,0.1-0.7,0.3
	C18.2,18.7,18.1,18.9,18.1,19.2z M18.1,6.6c0,0.3,0.1,0.5,0.3,0.7c0.2,0.2,0.4,0.3,0.7,0.3s0.5-0.1,0.7-0.3l1.6-1.7
	c0.2-0.2,0.3-0.4,0.3-0.7s-0.1-0.5-0.3-0.6S21,4,20.7,4c-0.3,0-0.5,0.1-0.7,0.3l-1.6,1.6C18.2,6.1,18.1,6.3,18.1,6.6z M20.6,12.9
	c0,0.3,0.1,0.5,0.3,0.7s0.4,0.3,0.7,0.3h1.7c0.3,0,0.5-0.1,0.7-0.3s0.3-0.4,0.3-0.7s-0.1-0.5-0.3-0.7s-0.4-0.3-0.7-0.3h-1.7
	c-0.3,0-0.5,0.1-0.7,0.3C20.8,12.4,20.6,12.6,20.6,12.9z"/>
</svg>
