<?xml version="1.0" encoding="utf-8"?>
<!-- Generator: Adobe Illustrator 22.0.1, SVG Export Plug-In . SVG Version: 6.00 Build 0)  -->
<svg version="1.1" id="Layer_1" xmlns="http://www.w3.org/2000/svg" xmlns:xlink="http://www.w3.org/1999/xlink" x="0px" y="0px"
	 viewBox="0 0 22.1 17.1" style="enable-background:new 0 0 22.1 17.1;" xml:space="preserve">
<style type="text/css">
	.st0{fill:#FFFFFF;}
</style>
<path class="st0" d="M0.3,11.6c0-1.2,0.3-2.2,1.1-3.1S3,7,4.1,6.8c0.2-1,0.7-1.9,1.4-2.7S7.1,2.8,8,2.4c0.6-0.2,1.3-0.3,1.9-0.3
	c0.8,0,1.6,0.2,2.4,0.5c0.3-0.5,0.6-0.9,1-1.2c0.4-0.3,0.8-0.6,1.2-0.8s0.8-0.3,1.2-0.4c0.4-0.1,0.8-0.1,1.1-0.1
	c0.4,0,0.8,0.1,1.2,0.2l0.8,0.2c0.1,0.1,0.2,0.1,0.1,0.2l-0.1,0.6c-0.1,0.3-0.1,0.6-0.1,0.9s0,0.6,0.1,1c0.1,0.3,0.2,0.6,0.4,0.9
	c0.2,0.3,0.5,0.6,0.8,0.8s0.7,0.4,1.1,0.6l0.6,0.2c0.1,0,0.1,0.1,0.1,0.2c0,0,0,0,0,0.1l-0.2,0.7c-0.3,1.1-0.8,1.9-1.5,2.6
	c0.4,0.7,0.6,1.4,0.6,2.2c0,0,0,0.1,0,0.2c0,0.9-0.2,1.7-0.7,2.5c-0.4,0.8-1,1.4-1.8,1.8s-1.6,0.7-2.5,0.7H5.3
	c-0.9,0-1.7-0.2-2.5-0.7S1.5,15,1,14.2S0.3,12.5,0.3,11.6z M2,11.6c0,0.9,0.3,1.7,1,2.3s1.4,1,2.3,1h10.8c0.9,0,1.6-0.3,2.3-1
	s1-1.4,1-2.3s-0.3-1.6-1-2.3S17,8.4,16.1,8.4h-1.8l-0.1-0.8c-0.1-1-0.5-1.9-1.3-2.6s-1.6-1.1-2.6-1.2h-0.1h-0.1
	c-0.5,0-1,0.1-1.5,0.3l0,0C7.9,4.4,7.2,4.8,6.8,5.5C6.3,6.1,6,6.9,5.9,7.7L5.8,8.4H5.1C4.3,8.5,3.6,8.8,3,9.5S2,10.9,2,11.6z
	 M13.8,3.6c1.1,0.9,1.7,2,2,3.2h0.3c1.2,0,2.3,0.4,3.2,1.2c0.3-0.3,0.6-0.7,0.8-1.1c-0.9-0.4-1.6-1.1-2.2-2C17.4,3.9,17.1,3,17.1,2
	V1.8c0,0-0.1,0-0.2,0c-0.6,0-1.1,0.1-1.7,0.4C14.6,2.6,14.1,2.9,13.8,3.6z"/>
</svg>
