<?xml version="1.0" encoding="utf-8"?>
<!-- Generator: Adobe Illustrator 22.0.1, SVG Export Plug-In . SVG Version: 6.00 Build 0)  -->
<svg version="1.1" id="Layer_1" xmlns="http://www.w3.org/2000/svg" xmlns:xlink="http://www.w3.org/1999/xlink" x="0px" y="0px"
	 viewBox="0 0 22.2 15.7" style="enable-background:new 0 0 22.2 15.7;" xml:space="preserve">
<style type="text/css">
	.st0{fill:#FFFFFF;}
</style>
<path class="st0" d="M0.8,10.2c0-1.1,0.4-2.2,1.1-3.1s1.6-1.5,2.7-1.7C4.9,4,5.6,2.9,6.7,2S9,0.7,10.5,0.7c1.4,0,2.6,0.4,3.7,1.3
	s1.8,1.9,2.1,3.3h0.3c0.9,0,1.7,0.2,2.5,0.6s1.4,1,1.8,1.8s0.7,1.6,0.7,2.5s-0.2,1.7-0.6,2.5s-1,1.4-1.7,1.8
	c-0.7,0.5-1.5,0.7-2.4,0.7H5.6c-1.3-0.1-2.5-0.6-3.4-1.5C1.3,12.7,0.8,11.5,0.8,10.2z M2.5,10.2c0,0.9,0.3,1.6,0.9,2.3s1.3,1,2.2,1
	h11.2c0.9,0,1.6-0.4,2.2-1s0.9-1.4,0.9-2.3s-0.3-1.6-1-2.3s-1.4-1-2.3-1H15c-0.1,0-0.2-0.1-0.2-0.2l-0.1-0.6c-0.1-1.1-0.6-2-1.4-2.7
	s-1.8-1.1-2.9-1.1S8.3,2.7,7.6,3.4C6.8,4.1,6.3,5,6.2,6.1l0,0.7C6.2,6.9,6.1,7,6,7H5.5C4.7,7.1,4,7.5,3.4,8.1S2.5,9.3,2.5,10.2z"/>
</svg>
