<?xml version="1.0" encoding="utf-8"?>
<!-- Generator: Adobe Illustrator 22.0.1, SVG Export Plug-In . SVG Version: 6.00 Build 0)  -->
<svg version="1.1" id="Layer_1" xmlns="http://www.w3.org/2000/svg" xmlns:xlink="http://www.w3.org/1999/xlink" x="0px" y="0px"
	 viewBox="0 0 21.8 15.6" style="enable-background:new 0 0 21.8 15.6;" xml:space="preserve">
<style type="text/css">
	.st0{fill:#FFFFFF;}
</style>
<path class="st0" d="M0.5,10.3c0-1.1,0.4-2.2,1.1-3.1s1.6-1.5,2.7-1.7c0.3-1.4,1-2.5,2.1-3.4s2.3-1.3,3.8-1.3c1.4,0,2.6,0.4,3.7,1.3
	S15.7,4,16,5.4h0.3c0.9,0,1.7,0.2,2.5,0.6s1.4,1,1.8,1.8s0.7,1.6,0.7,2.5s-0.2,1.7-0.6,2.5s-1,1.4-1.7,1.8c-0.7,0.5-1.5,0.7-2.4,0.7
	H5.3c-1.3-0.1-2.5-0.6-3.4-1.5C1,12.8,0.5,11.6,0.5,10.3z M2.2,10.3c0,0.9,0.3,1.6,0.9,2.3s1.3,1,2.2,1h11.2c0.9,0,1.6-0.4,2.2-1
	s0.9-1.4,0.9-2.3s-0.3-1.6-1-2.3s-1.4-1-2.3-1h-1.6c-0.1,0-0.2-0.1-0.2-0.2l-0.1-0.6c-0.1-1.1-0.6-2-1.4-2.7s-1.8-1.1-2.9-1.1
	S8,2.8,7.3,3.5C6.5,4.2,6,5.1,5.9,6.2l0,0.7c0,0.1-0.1,0.2-0.2,0.2H5.2C4.4,7.2,3.7,7.6,3.1,8.2S2.2,9.4,2.2,10.3z"/>
</svg>
