<?xml version="1.0" encoding="utf-8"?>
<!-- Generator: Adobe Illustrator 22.0.1, SVG Export Plug-In . SVG Version: 6.00 Build 0)  -->
<svg version="1.1" id="Layer_1" xmlns="http://www.w3.org/2000/svg" xmlns:xlink="http://www.w3.org/1999/xlink" x="0px" y="0px"
	 viewBox="0 0 28.4 24" style="enable-background:new 0 0 28.4 24;" xml:space="preserve">
<style type="text/css">
	.st0{fill:#FFFFFF;}
</style>
<path class="st0" d="M0.7,16.5c0,0.9,0.2,1.7,0.6,2.4c0.4,0.8,1,1.4,1.7,1.8c0.7,0.5,1.5,0.7,2.4,0.7c0.1,0,0.2-0.1,0.2-0.2v-1.3
	c0-0.1-0.1-0.2-0.2-0.2c-0.8,0-1.6-0.4-2.2-1s-0.9-1.4-0.9-2.2c0-0.8,0.3-1.5,0.8-2.1s1.3-1,2.1-1.1h0.5c0.1,0,0.2-0.1,0.2-0.2
	l0.2-0.6c0.1-1.1,0.6-2,1.4-2.7s1.8-1.1,2.8-1.1c1.1,0,2,0.4,2.8,1.1s1.3,1.6,1.4,2.7l0.1,0.6c0,0.1,0.1,0.2,0.2,0.2h1.6
	c0.9,0,1.6,0.3,2.3,1c0.6,0.6,1,1.4,1,2.3s-0.3,1.6-0.9,2.2s-1.3,1-2.2,1c-0.1,0-0.2,0.1-0.2,0.2v1.3c0,0.1,0.1,0.2,0.2,0.2
	c0.9,0,1.7-0.3,2.4-0.7s1.3-1,1.7-1.8s0.6-1.6,0.6-2.4c0-0.7-0.1-1.4-0.4-2c0.8-0.9,1.2-2.1,1.2-3.3c0-0.9-0.2-1.8-0.7-2.6
	s-1.1-1.4-1.9-1.9s-1.7-0.7-2.6-0.7c-1.5,0-2.8,0.6-3.9,1.7c-0.8-0.4-1.7-0.7-2.7-0.7c-1.4,0-2.6,0.4-3.7,1.3s-1.8,2-2.1,3.3
	c-1.1,0.3-2,0.8-2.7,1.7C1,14.3,0.7,15.4,0.7,16.5z M6.6,17.4c0,0.4,0.1,0.7,0.4,1c0.3,0.3,0.6,0.4,1,0.4s0.7-0.1,1-0.4
	s0.4-0.6,0.4-1c0-0.2-0.1-0.6-0.4-1c-0.2-0.4-0.4-0.8-0.6-1C8.2,15.2,8,15,8,15l-0.4,0.4c-0.3,0.3-0.5,0.6-0.7,1S6.6,17.1,6.6,17.4z
	 M9.1,4.3c0,0.3,0.1,0.5,0.2,0.6l0.6,0.7c0.4,0.3,0.8,0.3,1.2,0c0.2-0.2,0.2-0.4,0.2-0.6s-0.1-0.4-0.2-0.6l-0.6-0.8
	c-0.2-0.2-0.4-0.2-0.6-0.2c-0.2,0-0.4,0.1-0.6,0.2C9.1,3.7,9.1,4,9.1,4.3z M9.5,21.3c0,0.7,0.2,1.2,0.7,1.6s1,0.7,1.6,0.7
	s1.2-0.2,1.7-0.7s0.7-1,0.7-1.6c0-0.5-0.3-1.2-0.8-2c-0.5-0.6-0.9-1.1-1.3-1.5c-0.1-0.1-0.2-0.1-0.3-0.2l-0.2,0.2
	c-0.4,0.3-0.8,0.8-1.3,1.5C9.8,20.1,9.5,20.8,9.5,21.3z M11,14.7c0,0.2,0.1,0.5,0.3,0.6c0.2,0.2,0.4,0.3,0.7,0.3s0.5-0.1,0.7-0.3
	s0.3-0.4,0.3-0.6c0-0.4-0.3-0.9-0.9-1.6l-0.2,0.2c-0.2,0.2-0.4,0.4-0.5,0.7C11.1,14.3,11,14.5,11,14.7z M14.4,8.7
	c0.7-0.7,1.5-1,2.5-1s1.8,0.3,2.5,1s1,1.5,1,2.5c0,0.6-0.2,1.2-0.5,1.8c-1-1-2.1-1.4-3.5-1.4h-0.3C15.8,10.4,15.2,9.5,14.4,8.7z
	 M16,3.4c0,0.2,0.1,0.4,0.3,0.6s0.4,0.2,0.6,0.2s0.4-0.1,0.6-0.2c0.2-0.2,0.2-0.4,0.2-0.6v-2c0-0.2-0.1-0.4-0.2-0.6
	s-0.4-0.3-0.6-0.3s-0.5,0.1-0.6,0.3S16,1.2,16,1.4C16,1.4,16,3.4,16,3.4z M21.5,5.7c0,0.2,0.1,0.4,0.2,0.6c0.2,0.2,0.4,0.2,0.6,0.2
	s0.4-0.1,0.6-0.2l1.4-1.4c0.2-0.2,0.3-0.4,0.3-0.6s-0.1-0.4-0.2-0.6c-0.2-0.2-0.4-0.2-0.6-0.2s-0.4,0.1-0.6,0.2l-1.4,1.4
	C21.6,5.3,21.5,5.5,21.5,5.7z M22.3,17.5c0,0.2,0.1,0.5,0.2,0.6l0.6,0.6c0.1,0.2,0.3,0.3,0.6,0.3c0.2,0,0.4-0.1,0.6-0.3
	c0.2-0.2,0.3-0.4,0.3-0.6s-0.1-0.4-0.3-0.6l-0.6-0.6c-0.2-0.2-0.4-0.2-0.6-0.2s-0.4,0.1-0.6,0.2S22.3,17.3,22.3,17.5z M23.8,11.2
	c0,0.2,0.1,0.4,0.2,0.6s0.4,0.2,0.6,0.2h2c0.2,0,0.4-0.1,0.6-0.2c0.2-0.2,0.2-0.4,0.2-0.6s-0.1-0.4-0.2-0.6s-0.4-0.2-0.6-0.2h-2
	c-0.2,0-0.4,0.1-0.6,0.2S23.8,11,23.8,11.2z"/>
</svg>
