<?xml version="1.0" encoding="utf-8"?>
<!-- Generator: Adobe Illustrator 22.0.1, SVG Export Plug-In . SVG Version: 6.00 Build 0)  -->
<svg version="1.1" id="Layer_1" xmlns="http://www.w3.org/2000/svg" xmlns:xlink="http://www.w3.org/1999/xlink" x="0px" y="0px"
	 viewBox="0 0 22.8 19.5" style="enable-background:new 0 0 22.8 19.5;" xml:space="preserve">
<style type="text/css">
	.st0{fill:#FFFFFF;}
</style>
<path class="st0" d="M0.7,11.1c0,1.3,0.5,2.5,1.4,3.4S4.2,16,5.5,16c0.1,0,0.2-0.1,0.2-0.2v-1.4c0-0.1-0.1-0.2-0.2-0.2
	c-0.9-0.1-1.6-0.4-2.2-1S2.4,11.8,2.4,11c0-0.8,0.3-1.6,0.8-2.2s1.3-1,2.1-1l0.5-0.1C5.9,7.7,6,7.6,6,7.5L6.1,7
	c0.1-1.1,0.6-2,1.4-2.7s1.8-1.1,2.9-1.1s2.1,0.4,2.9,1.1C14.1,5,14.6,5.9,14.7,7l0.1,0.6c0,0.1,0.1,0.2,0.2,0.2h1.5
	c0.9,0,1.7,0.3,2.3,0.9s1,1.4,1,2.3c0,0.9-0.3,1.6-0.9,2.2s-1.3,1-2.2,1c-0.1,0-0.2,0.1-0.2,0.2v1.4c0,0.1,0.1,0.2,0.2,0.2
	c1.3,0,2.5-0.5,3.4-1.5s1.4-2.1,1.4-3.5c0-0.7-0.1-1.4-0.4-2c0.8-1,1.2-2.1,1.2-3.4c0-0.9-0.2-1.8-0.7-2.6s-1.2-1.4-2-1.8
	c-0.8-0.5-1.7-0.7-2.6-0.7c-1.5,0-2.8,0.6-3.9,1.8c-0.8-0.4-1.7-0.6-2.7-0.6C9,1.7,7.7,2.1,6.6,3S4.8,5,4.5,6.4
	c-1.1,0.3-2,0.8-2.7,1.7C1.1,8.9,0.7,9.9,0.7,11.1z M6.6,12c0,0.4,0.1,0.7,0.4,1c0.3,0.3,0.6,0.4,1,0.4s0.7-0.1,1-0.4s0.4-0.6,0.4-1
	c0-0.3-0.1-0.6-0.4-1c-0.2-0.4-0.4-0.8-0.7-1c0,0-0.1-0.1-0.2-0.2S7.9,9.6,7.9,9.6L7.5,10c-0.3,0.3-0.5,0.7-0.8,1.1
	C6.8,11.4,6.6,11.7,6.6,12z M9.6,16c0,0.6,0.2,1.2,0.7,1.6s1,0.7,1.6,0.7c0.6,0,1.2-0.2,1.7-0.7s0.7-1,0.7-1.6c0-0.3-0.1-0.6-0.2-1
	c-0.2-0.4-0.3-0.7-0.6-1c-0.5-0.6-0.9-1.1-1.3-1.5c-0.1,0-0.1-0.1-0.3-0.2l-0.6,0.6c-0.4,0.4-0.9,1-1.2,1.6C9.8,15,9.6,15.5,9.6,16z
	 M11.1,9.3c0,0.3,0.1,0.5,0.3,0.7s0.4,0.3,0.7,0.3s0.5-0.1,0.7-0.3s0.3-0.4,0.3-0.7c0-0.4-0.3-0.9-0.9-1.6L12,8
	c-0.2,0.2-0.4,0.4-0.5,0.7C11.2,8.9,11.1,9.1,11.1,9.3z M14.5,3.2c0.7-0.7,1.5-1,2.5-1s1.8,0.3,2.5,1s1,1.5,1,2.5
	c0,0.6-0.2,1.2-0.5,1.9c-1-1-2.2-1.4-3.5-1.4h-0.3C15.9,5,15.4,4,14.5,3.2z"/>
</svg>
