<?xml version="1.0" encoding="utf-8"?>
<!-- Generator: Adobe Illustrator 22.0.1, SVG Export Plug-In . SVG Version: 6.00 Build 0)  -->
<svg version="1.1" id="Layer_1" xmlns="http://www.w3.org/2000/svg" xmlns:xlink="http://www.w3.org/1999/xlink" x="0px" y="0px"
	 viewBox="0 0 27.7 27.4" style="enable-background:new 0 0 27.7 27.4;" xml:space="preserve">
<style type="text/css">
	.st0{fill:#FFFFFF;}
</style>
<path class="st0" d="M0.6,16.3c0,1.3,0.5,2.5,1.4,3.4s2.1,1.5,3.4,1.5c0.1,0,0.2-0.1,0.2-0.2v-1.3c0-0.1-0.1-0.2-0.2-0.2
	c-0.8,0-1.6-0.4-2.2-1s-0.9-1.4-0.9-2.2c0-0.8,0.3-1.6,0.8-2.2s1.3-1,2.1-1.1h0.5c0.1,0,0.2-0.1,0.2-0.2L6,12.3
	c0.1-1.1,0.6-2,1.4-2.7s1.8-1.1,2.9-1.1s2.1,0.4,2.9,1.1c0.8,0.7,1.3,1.6,1.4,2.7l0.1,0.6c0,0.1,0.1,0.2,0.2,0.2h1.7
	c0.9,0,1.6,0.3,2.3,1c0.6,0.6,1,1.4,1,2.3c0,0.9-0.3,1.6-0.9,2.2s-1.3,1-2.2,1c-0.1,0-0.2,0.1-0.2,0.2v1.3c0,0.1,0.1,0.2,0.2,0.2
	c0.9,0,1.7-0.3,2.4-0.7s1.3-1,1.7-1.8c0.4-0.8,0.6-1.6,0.6-2.4c0-0.7-0.1-1.4-0.4-2c0.8-0.9,1.1-2,1.1-3.3c0-0.7-0.1-1.4-0.4-2
	s-0.6-1.2-1.1-1.7s-1-0.8-1.7-1.1c-0.6-0.3-1.3-0.4-2-0.4c-1.5,0-2.8,0.6-3.8,1.7C12.4,7.2,11.5,7,10.5,7C9.1,7,7.8,7.4,6.7,8.3
	s-1.8,2-2.1,3.3c-1.1,0.3-2,0.8-2.8,1.7C0.9,14.1,0.6,15.1,0.6,16.3z M6,23c0,0.2,0.1,0.4,0.2,0.5c0.1,0.2,0.3,0.3,0.4,0.4
	s0.4,0,0.6-0.1s0.4-0.3,0.4-0.5l0.2-1c0.1-0.2,0.1-0.4-0.1-0.6c-0.1-0.2-0.3-0.4-0.5-0.4c-0.2-0.1-0.5,0-0.7,0.1s-0.3,0.3-0.4,0.5
	l-0.3,1C6,22.8,6,22.9,6,23z M7.3,18.3c0,0.4,0.2,0.6,0.6,0.8c0.2,0.1,0.4,0.1,0.6,0c0.2-0.1,0.3-0.3,0.4-0.5l0.2-1
	C9.2,17.4,9.2,17.2,9,17c0-0.4-0.1-0.5-0.4-0.6c-0.2-0.1-0.5,0-0.7,0.1S7.6,16.8,7.5,17l-0.3,1C7.3,18.1,7.3,18.2,7.3,18.3z
	 M8.5,26.2c0,0.2,0.1,0.3,0.2,0.5S9,27,9.2,27.1c0,0,0,0,0.1,0s0.1,0,0.1,0c0.1,0,0.3,0,0.4-0.1c0.2-0.1,0.3-0.3,0.4-0.6l0.3-1
	c0.1-0.2,0.1-0.5-0.1-0.6c-0.1-0.2-0.3-0.3-0.5-0.4s-0.4,0-0.6,0.1C9.1,24.6,9,24.8,8.9,25l-0.3,1C8.5,26,8.5,26.1,8.5,26.2z M9,4.1
	c0,0.2,0.1,0.5,0.2,0.6l0.7,0.7c0.3,0.3,0.7,0.3,1.2,0c0.2-0.2,0.2-0.4,0.2-0.6S11.2,4.3,11,4.1l-0.6-0.7C10.2,3.2,10,3.2,9.8,3.2
	c-0.2,0-0.4,0.1-0.6,0.3C9,3.6,9,3.8,9,4.1z M9.9,21.4c0,0.2,0.1,0.3,0.2,0.5s0.3,0.3,0.5,0.4s0.4,0,0.6,0c0.2-0.1,0.3-0.3,0.4-0.6
	l0.2-1c0.1-0.2,0.1-0.5-0.1-0.6c-0.1-0.2-0.3-0.3-0.5-0.4s-0.5,0-0.7,0.1s-0.3,0.3-0.4,0.5l-0.3,1C9.9,21.2,9.9,21.3,9.9,21.4z
	 M12.6,23.1c0,0.4,0.2,0.6,0.6,0.8h0.2c0.2,0,0.3,0,0.5-0.2c0.1-0.1,0.3-0.3,0.3-0.5l0.3-1c0.1-0.2,0-0.5-0.1-0.7s-0.3-0.3-0.5-0.4
	s-0.4,0-0.6,0.1s-0.3,0.3-0.4,0.5l-0.3,1c0,0,0,0,0,0.1S12.6,23,12.6,23.1C12.6,23,12.6,23.1,12.6,23.1z M14,18.3
	c0,0.2,0.1,0.3,0.1,0.5c0.1,0.2,0.2,0.3,0.4,0.3h0.2c0.2,0,0.4-0.1,0.5-0.2s0.2-0.3,0.3-0.5l0.3-1c0.1-0.2,0-0.5-0.1-0.6
	c-0.1-0.2-0.3-0.3-0.5-0.4c-0.2-0.1-0.4,0-0.6,0.1c-0.2,0.1-0.3,0.3-0.4,0.5L14,18.1C14,18.2,14,18.3,14,18.3z M14.4,8.5
	c0.7-0.6,1.5-1,2.4-1c1,0,1.8,0.4,2.5,1s1,1.5,1,2.5c0,0.6-0.2,1.1-0.5,1.8c-1-1-2.1-1.4-3.5-1.4H16C15.8,10.2,15.2,9.3,14.4,8.5z
	 M15.9,3.2c0,0.2,0.1,0.4,0.2,0.6C16.3,4,16.5,4,16.7,4s0.5-0.1,0.6-0.2s0.2-0.4,0.2-0.6v-2c0-0.2-0.1-0.5-0.2-0.6S17,0.3,16.8,0.3
	s-0.5,0.1-0.7,0.3S15.9,1,15.9,1.2V3.2z M21.5,5.5c0,0.2,0.1,0.4,0.2,0.6c0.2,0.2,0.4,0.3,0.6,0.3c0.2,0,0.4-0.1,0.6-0.2l1.4-1.4
	c0.2-0.2,0.2-0.4,0.2-0.6s-0.1-0.4-0.2-0.6c-0.2-0.2-0.4-0.2-0.6-0.2s-0.4,0.1-0.6,0.2L21.7,5C21.5,5.1,21.5,5.3,21.5,5.5z
	 M22.2,17.4c0,0.2,0.1,0.4,0.3,0.6l0.6,0.6c0.2,0.2,0.4,0.3,0.6,0.3s0.4-0.1,0.6-0.3c0.2-0.2,0.3-0.4,0.3-0.6s-0.1-0.4-0.3-0.6
	l-0.6-0.7c-0.2-0.2-0.4-0.2-0.6-0.2s-0.4,0.1-0.6,0.2C22.3,16.9,22.2,17.1,22.2,17.4z M23.7,11c0,0.2,0.1,0.4,0.2,0.6
	s0.4,0.2,0.6,0.2h2c0.3,0,0.5-0.1,0.6-0.2c0.2-0.2,0.2-0.4,0.2-0.6c0-0.2-0.1-0.5-0.2-0.6s-0.4-0.2-0.6-0.2h-2
	c-0.2,0-0.4,0.1-0.6,0.2C23.8,10.6,23.7,10.8,23.7,11z"/>
</svg>
