<?xml version="1.0" encoding="utf-8"?>
<!-- Generator: Adobe Illustrator 22.0.1, SVG Export Plug-In . SVG Version: 6.00 Build 0)  -->
<svg version="1.1" id="Layer_1" xmlns="http://www.w3.org/2000/svg" xmlns:xlink="http://www.w3.org/1999/xlink" x="0px" y="0px"
	 viewBox="0 0 22.6 23.1" style="enable-background:new 0 0 22.6 23.1;" xml:space="preserve">
<style type="text/css">
	.st0{fill:#FFFFFF;}
</style>
<path class="st0" d="M0.3,11.9c0,1.3,0.5,2.5,1.4,3.4s2.1,1.5,3.4,1.5c0.1,0.1,0.1,0,0.1-0.1v-1.4c0-0.1-0.1-0.2-0.2-0.2
	c-0.9-0.1-1.6-0.4-2.2-1S2,12.7,2,11.9c0-0.8,0.3-1.5,0.8-2.2s1.3-1,2.1-1.1l0.5-0.1c0.1,0,0.2-0.1,0.2-0.2l0.1-0.5
	c0.1-1.1,0.6-2,1.4-2.7C7.9,4.4,8.9,4,9.9,4s2,0.4,2.9,1.1c0.8,0.7,1.3,1.6,1.4,2.7l0.1,0.6c0,0.1,0.1,0.2,0.2,0.2h1.6
	c0.9,0,1.7,0.3,2.3,0.9c0.6,0.6,1,1.4,1,2.3c0,0.9-0.3,1.6-0.9,2.2s-1.3,1-2.2,1c-0.1,0-0.2,0.1-0.2,0.2v1.4c0,0.1,0.1,0.2,0.2,0.2
	c1.3,0,2.5-0.5,3.4-1.5s1.4-2.1,1.4-3.5c0-0.9-0.2-1.7-0.6-2.4c0.8-0.7,1.3-1.6,1.6-2.6V6.7l0.2-0.8l-0.8-0.2
	c-0.8-0.2-1.4-0.7-1.9-1.4s-0.7-1.3-0.7-2c0-0.3,0-0.5,0.1-0.8l0.2-0.8l-0.9-0.2h-0.1c-0.5-0.1-0.9-0.1-1.2-0.1
	c-0.4,0-0.8,0-1.1,0.1c-0.4,0.1-0.8,0.2-1.2,0.4c-0.4,0.2-0.8,0.4-1.2,0.8c-0.4,0.3-0.7,0.8-1,1.2c-0.7-0.3-1.5-0.5-2.4-0.5
	c-1.4,0-2.7,0.4-3.8,1.3s-1.8,2-2.1,3.4C3,7.4,2,7.9,1.3,8.8C0.7,9.7,0.3,10.8,0.3,11.9z M5.8,18.7c0,0.1,0.1,0.3,0.1,0.5
	c0.1,0.1,0.2,0.3,0.4,0.3c0.2,0.1,0.4,0.1,0.6,0s0.3-0.3,0.4-0.5l0.3-1.1c0.1-0.2,0.1-0.4-0.1-0.6c-0.1-0.2-0.3-0.3-0.5-0.4
	s-0.4,0-0.6,0.1S6,17.3,5.9,17.5l-0.2,1C5.8,18.6,5.8,18.7,5.8,18.7z M7.1,14c0,0.1,0,0.2,0.1,0.4c0.1,0.2,0.2,0.3,0.5,0.4
	c0.2,0.1,0.5,0,0.7-0.1s0.3-0.3,0.4-0.5l0.3-1c0.1-0.2,0.1-0.5-0.1-0.6c-0.1-0.2-0.3-0.3-0.5-0.4s-0.5,0-0.7,0.1s-0.3,0.3-0.4,0.5
	l-0.3,1C7.1,13.8,7.1,13.9,7.1,14z M8.2,21.8c0,0.2,0.1,0.3,0.1,0.5c0.1,0.2,0.2,0.3,0.4,0.3c0.1,0,0.2,0,0.2,0c0.1,0,0.2,0,0.4-0.1
	s0.3-0.3,0.4-0.5l0.3-1c0.1-0.2,0.1-0.4-0.1-0.6S9.6,20.1,9.4,20s-0.5,0-0.7,0.1s-0.3,0.3-0.4,0.5l-0.2,1
	C8.2,21.6,8.2,21.7,8.2,21.8z M9.6,17c0,0.1,0.1,0.3,0.1,0.5s0.2,0.3,0.5,0.3c0.2,0.1,0.4,0,0.6-0.1c0.2-0.1,0.3-0.3,0.4-0.5l0.3-1
	c0.1-0.2,0.1-0.4-0.1-0.6c-0.1-0.2-0.3-0.3-0.5-0.4s-0.5,0-0.7,0.1s-0.4,0.3-0.4,0.5l-0.2,1L9.6,17z M12.5,18.8
	c0,0.4,0.2,0.6,0.6,0.8c0.1,0,0.2,0,0.2,0c0.1,0,0.3,0,0.4-0.1c0.2-0.1,0.4-0.3,0.4-0.6l0.3-1c0.1-0.2,0-0.5-0.1-0.7
	s-0.3-0.3-0.5-0.4s-0.5,0-0.6,0.1s-0.3,0.3-0.4,0.5l-0.3,1v0.1C12.5,18.7,12.5,18.8,12.5,18.8z M13.8,14c0,0.2,0,0.3,0.1,0.5
	s0.3,0.3,0.5,0.3c0.1,0,0.2,0,0.2,0c0.1,0,0.2,0,0.4-0.1c0.2-0.1,0.4-0.3,0.4-0.5l0.3-1c0.1-0.2,0-0.4-0.1-0.6s-0.3-0.3-0.5-0.4
	s-0.4,0-0.6,0.1s-0.3,0.3-0.4,0.5l-0.3,1.1C13.9,13.8,13.8,13.9,13.8,14z M13.9,3.8c0.3-0.6,0.8-1,1.3-1.3S16.4,2,17,2h0.2
	c0,0.1,0,0.2,0,0.4c0,0.9,0.3,1.9,0.8,2.7s1.2,1.5,2.2,2c-0.2,0.4-0.5,0.8-0.8,1.1c-0.9-0.8-2-1.2-3.2-1.2h-0.3
	C15.5,5.8,14.9,4.7,13.9,3.8z"/>
</svg>
