<?xml version="1.0" encoding="utf-8"?>
<!-- Generator: Adobe Illustrator 22.0.1, SVG Export Plug-In . SVG Version: 6.00 Build 0)  -->
<svg version="1.1" id="Layer_1" xmlns="http://www.w3.org/2000/svg" xmlns:xlink="http://www.w3.org/1999/xlink" x="0px" y="0px"
	 viewBox="0 0 30 28" style="enable-background:new 0 0 30 28;" xml:space="preserve">
<style type="text/css">
	.st0{fill:#FFFFFF;}
</style>
<path class="st0" d="M1.5,16.6c0,1.1,0.3,2.1,1,3s1.5,1.5,2.6,1.8l-0.6,1.7c0,0.1,0,0.2,0.1,0.2h2.1l-1.2,3.9h0.3l4.2-5.4v-0.1
	c0-0.1-0.1-0.1-0.1-0.1H7.6l2.5-4.6c0.1-0.1,0-0.2-0.1-0.2H7c-0.1,0-0.2,0-0.2,0.1l-1.1,2.9c-0.7-0.2-1.3-0.6-1.8-1.2
	s-0.7-1.3-0.7-2c0-0.8,0.3-1.6,0.9-2.2s1.3-1,2.1-1.1l0.5-0.1c0.1,0,0.2-0.1,0.2-0.2L7,12.6c0.1-1.1,0.6-2,1.4-2.7s1.8-1.1,2.9-1.1
	s2,0.4,2.9,1.1s1.3,1.6,1.4,2.7l0.1,0.6c0,0.1,0.1,0.2,0.2,0.2h1.6c0.9,0,1.7,0.3,2.3,0.9s1,1.4,1,2.3s-0.3,1.6-0.9,2.2
	s-1.3,1-2.2,1c-0.1,0-0.2,0.1-0.2,0.2v1.4c0,0.1,0.1,0.2,0.2,0.2c1.3,0,2.5-0.5,3.4-1.5s1.4-2.1,1.4-3.5c0-0.7-0.1-1.4-0.4-2
	c0.8-1,1.2-2.1,1.2-3.3c0-0.9-0.2-1.8-0.7-2.6s-1.4-1.5-2.2-2C19.6,6.2,18.7,6,17.8,6c-1.5,0-2.8,0.6-3.9,1.7
	C13.1,7.3,12.2,7,11.2,7C9.8,7,8.5,7.4,7.4,8.3c-1.1,0.9-1.8,2-2.1,3.4c-1.1,0.3-2,0.8-2.7,1.7S1.5,15.5,1.5,16.6z M9.6,26.2
	c0,0.1,0,0.3,0.1,0.4s0.3,0.2,0.5,0.3c0.1,0,0.1,0,0.2,0c0.2,0,0.3,0,0.5-0.1s0.3-0.3,0.3-0.5l2.3-8.6c0.1-0.2,0-0.5-0.1-0.6
	c-0.1-0.2-0.3-0.3-0.5-0.4s-0.4,0-0.6,0.1c-0.2,0.1-0.3,0.3-0.4,0.5l-2.3,8.6C9.6,26,9.6,26.1,9.6,26.2z M9.9,4.3
	c0,0.2,0.1,0.4,0.2,0.6l0.6,0.7c0.2,0.2,0.4,0.2,0.6,0.3c0.2,0,0.4-0.1,0.6-0.3c0.2-0.2,0.3-0.3,0.3-0.6c0-0.2-0.1-0.4-0.2-0.6
	l-0.6-0.7c-0.2-0.2-0.4-0.2-0.6-0.2c-0.2,0-0.5,0.1-0.6,0.2C10,3.9,9.9,4.1,9.9,4.3z M13.8,23.1c0,0.1,0,0.2,0.1,0.4
	c0.1,0.2,0.3,0.3,0.5,0.4c0.1,0,0.2,0,0.3,0s0.3,0,0.3-0.1c0.2-0.1,0.3-0.3,0.4-0.6l1.5-5.6c0.1-0.2,0-0.5-0.1-0.6
	c-0.1-0.2-0.3-0.3-0.5-0.4s-0.4,0-0.6,0.1c-0.2,0.1-0.3,0.3-0.4,0.5l-1.5,5.6v0.1C13.8,23.1,13.8,23.1,13.8,23.1z M15.3,8.7
	c0.7-0.6,1.5-1,2.5-1s1.8,0.3,2.5,1s1,1.5,1,2.5c0,0.6-0.2,1.2-0.5,1.9c-1-1-2.2-1.5-3.5-1.5H17C16.7,10.5,16.1,9.5,15.3,8.7z
	 M16.9,3.5c0,0.2,0.1,0.4,0.3,0.6c0.2,0.2,0.4,0.3,0.6,0.3s0.4-0.1,0.6-0.2s0.2-0.4,0.2-0.6V1.4c0-0.2-0.1-0.4-0.2-0.6
	S18,0.6,17.8,0.6s-0.4,0.1-0.6,0.2s-0.3,0.4-0.3,0.6V3.5z M22.4,5.8c0,0.2,0.1,0.4,0.3,0.6c0.1,0.2,0.3,0.2,0.6,0.2s0.4-0.1,0.6-0.2
	L25.3,5c0.2-0.2,0.3-0.3,0.3-0.6c0-0.2-0.1-0.4-0.2-0.6S25,3.5,24.7,3.5c-0.2,0-0.4,0.1-0.6,0.3l-1.4,1.4
	C22.5,5.3,22.4,5.5,22.4,5.8z M23.2,17.6c0,0.2,0.1,0.4,0.2,0.6l0.7,0.6c0.1,0.1,0.3,0.2,0.5,0.2l0,0l0,0l0,0c0.2,0,0.4-0.1,0.5-0.3
	c0.2-0.2,0.3-0.4,0.3-0.6s-0.1-0.4-0.3-0.6l-0.6-0.6c-0.2-0.2-0.4-0.3-0.6-0.3s-0.4,0.1-0.6,0.2C23.3,17.2,23.2,17.4,23.2,17.6z
	 M24.7,11.3c0,0.2,0.1,0.4,0.3,0.6c0.2,0.2,0.4,0.3,0.6,0.3h2c0.2,0,0.4-0.1,0.6-0.3s0.3-0.4,0.3-0.6s-0.1-0.4-0.2-0.6
	s-0.4-0.2-0.6-0.2h-2c-0.2,0-0.5,0.1-0.6,0.2C24.8,10.8,24.7,11.1,24.7,11.3z"/>
</svg>
