<?xml version="1.0" encoding="utf-8"?>
<!-- Generator: Adobe Illustrator 22.0.1, SVG Export Plug-In . SVG Version: 6.00 Build 0)  -->
<svg version="1.1" id="Layer_1" xmlns="http://www.w3.org/2000/svg" xmlns:xlink="http://www.w3.org/1999/xlink" x="0px" y="0px"
	 viewBox="0 0 22.6 22.4" style="enable-background:new 0 0 22.6 22.4;" xml:space="preserve">
<style type="text/css">
	.st0{fill:#FFFFFF;}
</style>
<path class="st0" d="M0.7,10.9c0,1.1,0.3,2.1,1,3s1.5,1.5,2.6,1.8l-0.6,1.7c-0.1,0.1,0,0.2,0.1,0.2h2.1l-1,4.2h0.3l4-5.6v-0.1
	L9.1,16H6.9l2.5-4.6c0.1-0.1,0-0.2-0.1-0.2H6.1c-0.1,0-0.2,0-0.2,0.1l-1.1,2.9C4.1,14,3.5,13.6,3,13.1s-0.6-1.4-0.6-2.2
	c0-0.8,0.3-1.6,0.8-2.2s1.3-1,2.1-1.1h0.5C5.9,7.6,6,7.5,6,7.4l0.1-0.5C6.2,6.2,6.4,5.5,6.8,5c0.4-0.6,0.9-1,1.5-1.4s1.3-0.5,2-0.5
	c1.1,0,2,0.4,2.8,1.1c0.8,0.7,1.3,1.6,1.4,2.7l0.1,0.6c0,0.1,0.1,0.2,0.2,0.2h1.6c0.9,0,1.6,0.3,2.3,1s1,1.4,1,2.3s-0.3,1.6-0.9,2.2
	s-1.3,1-2.2,1c-0.1,0-0.2,0.1-0.2,0.2v1.3c0,0.1,0.1,0.2,0.2,0.2c0.9,0,1.7-0.3,2.4-0.7c0.7-0.5,1.3-1,1.7-1.8s0.6-1.6,0.6-2.4
	c0-0.7-0.1-1.4-0.4-2c0.8-0.9,1.2-2,1.2-3.3c0-0.7-0.1-1.4-0.4-2S21.1,2.5,20.6,2s-1-0.8-1.7-1.1c-0.6-0.3-1.3-0.4-2-0.4
	c-1.5,0-2.8,0.6-3.9,1.7c-0.8-0.4-1.7-0.7-2.7-0.7c-1.4,0-2.7,0.4-3.8,1.3s-1.8,2-2.1,3.4C3.3,6.5,2.4,7,1.7,7.9S0.7,9.7,0.7,10.9z
	 M8.6,20.8c0,0.2,0.1,0.3,0.1,0.5s0.2,0.2,0.4,0.3h0.2c0.4,0,0.7-0.2,0.8-0.6l2.4-8.9c0.1-0.2,0-0.5-0.1-0.6
	c-0.1-0.2-0.3-0.3-0.5-0.4s-0.4,0-0.6,0.1c-0.2,0.1-0.3,0.3-0.4,0.5l-2.4,8.9C8.6,20.7,8.6,20.8,8.6,20.8z M12.8,17.7
	c0,0.4,0.2,0.7,0.6,0.8c0.2,0,0.3,0,0.3,0c0.1,0,0.2,0,0.4-0.1c0.2-0.1,0.3-0.3,0.4-0.5l1.6-5.9c0.1-0.2,0-0.5-0.1-0.6
	c-0.1-0.2-0.3-0.3-0.5-0.4s-0.5,0-0.6,0.1c-0.2,0.1-0.3,0.3-0.4,0.5l-1.6,5.9C12.8,17.6,12.8,17.7,12.8,17.7z M14.4,3
	c0.7-0.6,1.5-1,2.5-1s1.8,0.3,2.5,1s1,1.5,1,2.5c0,0.6-0.2,1.2-0.5,1.9c-1-1-2.1-1.4-3.5-1.4h-0.3C15.8,4.8,15.3,3.9,14.4,3z"/>
</svg>
