<?xml version="1.0" encoding="utf-8"?>
<!-- Generator: Adobe Illustrator 22.0.1, SVG Export Plug-In . SVG Version: 6.00 Build 0)  -->
<svg version="1.1" id="Layer_1" xmlns="http://www.w3.org/2000/svg" xmlns:xlink="http://www.w3.org/1999/xlink" x="0px" y="0px"
	 viewBox="0 0 30 28.2" style="enable-background:new 0 0 30 28.2;" xml:space="preserve">
<style type="text/css">
	.st0{fill:#FFFFFF;}
</style>
<path class="st0" d="M1.6,16.9c0,0.9,0.2,1.7,0.6,2.4c0.4,0.7,1,1.3,1.7,1.8s1.5,0.7,2.4,0.7c0.1,0,0.2-0.1,0.2-0.2v-1.3
	c0-0.1-0.1-0.2-0.2-0.2c-0.8,0-1.6-0.4-2.2-1s-0.9-1.4-0.9-2.2c0-0.8,0.3-1.5,0.8-2.2c0.6-0.6,1.3-1,2.1-1.1l0.5-0.1
	c0.1,0,0.2-0.1,0.2-0.2L7,12.9c0.1-1.1,0.6-2,1.4-2.7s1.8-1.1,2.8-1.1c1.1,0,2,0.4,2.9,1.1c0.8,0.7,1.3,1.6,1.4,2.7l0.1,0.6
	c0,0.1,0.1,0.2,0.2,0.2h1.6c0.9,0,1.7,0.3,2.3,1s1,1.4,1,2.3c0,0.8-0.3,1.6-0.9,2.2s-1.3,1-2.2,1c-0.1,0-0.2,0.1-0.2,0.2v1.3
	c0,0.1,0.1,0.2,0.2,0.2c1.3,0,2.5-0.5,3.4-1.5s1.4-2.1,1.4-3.4c0-0.8-0.1-1.4-0.4-2c0.8-0.9,1.2-2,1.2-3.3c0-0.9-0.2-1.8-0.7-2.6
	c-0.5-0.8-1.1-1.4-1.9-1.9S18.9,6.5,18,6.5c-1.5,0-2.8,0.6-3.9,1.7c-0.8-0.4-1.7-0.7-2.7-0.7c-1.4,0-2.6,0.4-3.7,1.3s-1.8,2-2.1,3.3
	c-1.1,0.3-2,0.9-2.7,1.8C1.9,14.8,1.6,15.8,1.6,16.9z M7.9,21c0,0.2,0.1,0.4,0.2,0.6s0.4,0.2,0.6,0.2c0.2,0,0.4-0.1,0.6-0.2
	s0.2-0.4,0.2-0.6s-0.1-0.4-0.2-0.6S9,20.2,8.8,20.2s-0.4,0.1-0.6,0.2S7.9,20.8,7.9,21z M7.9,24.6c0,0.2,0.1,0.4,0.2,0.6
	c0.2,0.2,0.4,0.2,0.6,0.2c0.2,0,0.4-0.1,0.6-0.2c0.2-0.2,0.2-0.4,0.2-0.6S9.4,24.2,9.3,24S9,23.8,8.7,23.8c-0.2,0-0.4,0.1-0.6,0.2
	C8,24.2,7.9,24.4,7.9,24.6z M10,4.7c0,0.2,0.1,0.4,0.2,0.6L10.9,6c0.2,0.2,0.3,0.2,0.5,0.2s0.4,0,0.6-0.2s0.3-0.4,0.3-0.6
	s-0.1-0.5-0.2-0.6l-0.6-0.6C11.4,4,11.2,4,10.9,4c-0.2,0-0.5,0.1-0.6,0.2C10.1,4.2,10,4.4,10,4.7z M11.1,22.9c0,0.2,0.1,0.4,0.2,0.6
	c0.2,0.2,0.4,0.2,0.6,0.2c0.2,0,0.4-0.1,0.6-0.2s0.2-0.4,0.2-0.6s-0.1-0.4-0.2-0.6S12.2,22,11.9,22c-0.2,0-0.4,0.1-0.6,0.2
	S11.1,22.7,11.1,22.9z M11.1,19.3c0,0.2,0.1,0.4,0.2,0.6s0.4,0.2,0.6,0.2c0.2,0,0.4-0.1,0.6-0.2c0.2-0.2,0.2-0.4,0.2-0.6
	s-0.1-0.4-0.2-0.6s-0.4-0.2-0.6-0.2c-0.2,0-0.4,0.1-0.6,0.2S11.1,19.1,11.1,19.3z M11.1,26.6c0,0.2,0.1,0.4,0.2,0.6
	c0.2,0.2,0.4,0.2,0.6,0.2c0.2,0,0.4-0.1,0.6-0.2c0.2-0.2,0.2-0.4,0.2-0.6s-0.1-0.4-0.2-0.6c-0.2-0.2-0.4-0.2-0.6-0.2
	c-0.2,0-0.4,0.1-0.6,0.2C11.2,26.1,11.1,26.3,11.1,26.6z M14.3,21c0,0.2,0.1,0.4,0.2,0.6s0.4,0.2,0.6,0.2s0.4-0.1,0.6-0.2
	S16,21.2,16,21s-0.1-0.4-0.2-0.6s-0.4-0.2-0.6-0.2s-0.4,0.1-0.6,0.2S14.3,20.8,14.3,21z M14.3,24.6c0,0.2,0.1,0.4,0.2,0.6
	c0.2,0.2,0.4,0.2,0.6,0.2c0.2,0,0.4-0.1,0.6-0.2c0.2-0.2,0.2-0.4,0.2-0.6s-0.1-0.4-0.2-0.6s-0.4-0.2-0.6-0.2s-0.4,0.1-0.6,0.2
	C14.4,24.2,14.3,24.4,14.3,24.6z M15.3,9.1c0.7-0.7,1.5-1,2.5-1s1.8,0.4,2.5,1c0.7,0.7,1,1.5,1,2.5c0,0.6-0.2,1.2-0.5,1.8
	c-1-1-2.1-1.4-3.5-1.4H17C16.7,10.8,16.1,9.9,15.3,9.1z M16.9,3.8c0,0.2,0.1,0.4,0.2,0.6s0.4,0.2,0.6,0.2s0.4-0.1,0.6-0.2
	c0.2-0.2,0.2-0.3,0.2-0.6v-2c0-0.2-0.1-0.4-0.2-0.6S18,0.9,17.8,0.9S17.3,1,17.2,1.2s-0.3,0.4-0.3,0.6L16.9,3.8L16.9,3.8z M22.4,6.1
	c0,0.2,0.1,0.4,0.2,0.6C22.8,6.9,23,6.9,23.2,7s0.4-0.1,0.6-0.3l1.4-1.4c0.2-0.2,0.3-0.4,0.3-0.6s-0.1-0.4-0.3-0.6s-0.4-0.2-0.6-0.2
	S24.2,4,24,4.1l-1.4,1.5C22.5,5.7,22.4,5.9,22.4,6.1z M23.2,17.9c0,0.2,0.1,0.5,0.2,0.6l0.6,0.6c0.2,0.2,0.5,0.2,0.6,0.2
	c0.2,0,0.4-0.1,0.6-0.3s0.2-0.4,0.2-0.6s-0.1-0.4-0.3-0.6l-0.6-0.6C24.3,17,24.1,17,23.9,17s-0.4,0.1-0.6,0.2
	C23.3,17.5,23.2,17.7,23.2,17.9z M24.7,11.6c0,0.2,0.1,0.4,0.3,0.6c0.2,0.2,0.4,0.3,0.6,0.3h2c0.2,0,0.4-0.1,0.6-0.2
	s0.2-0.4,0.2-0.6s-0.1-0.4-0.2-0.6s-0.4-0.2-0.6-0.2h-2c-0.2,0-0.4,0.1-0.6,0.2S24.7,11.4,24.7,11.6z"/>
</svg>
