<?xml version="1.0" encoding="utf-8"?>
<!-- Generator: Adobe Illustrator 22.0.1, SVG Export Plug-In . SVG Version: 6.00 Build 0)  -->
<svg version="1.1" id="Layer_1" xmlns="http://www.w3.org/2000/svg" xmlns:xlink="http://www.w3.org/1999/xlink" x="0px" y="0px"
	 viewBox="0 0 22.8 22.5" style="enable-background:new 0 0 22.8 22.5;" xml:space="preserve">
<style type="text/css">
	.st0{fill:#FFFFFF;}
</style>
<path class="st0" d="M0.6,11.4c0,1.3,0.5,2.5,1.4,3.4s2.1,1.5,3.4,1.5c0.1,0,0.2-0.1,0.2-0.2v-1.3c0-0.1-0.1-0.2-0.2-0.2
	c-0.9,0-1.6-0.4-2.2-1s-0.9-1.4-0.9-2.3c0-0.8,0.3-1.6,0.8-2.2c0.6-0.6,1.3-1,2.1-1.1h0.5c0.1,0,0.2-0.1,0.2-0.2L6,7.3
	c0.1-1.1,0.6-2,1.4-2.7c0.8-0.7,1.8-1.1,2.9-1.1s2,0.4,2.9,1.1c0.8,0.7,1.3,1.6,1.4,2.7l0.1,0.6c0,0.1,0.1,0.2,0.2,0.2h1.5
	c0.9,0,1.7,0.3,2.3,0.9c0.6,0.6,1,1.4,1,2.3c0,0.9-0.3,1.6-0.9,2.2s-1.3,1-2.2,1c-0.1,0-0.2,0.1-0.2,0.2V16c0,0.1,0.1,0.2,0.2,0.2
	c1.3,0,2.5-0.5,3.4-1.5s1.4-2.1,1.4-3.5c0-0.7-0.1-1.4-0.4-2c0.8-1,1.2-2.1,1.2-3.3c0-0.9-0.2-1.8-0.7-2.6s-1.1-1.3-2-1.8
	s-1.7-0.7-2.6-0.7c-1.5,0-2.9,0.6-3.9,1.7c-0.8-0.4-1.7-0.7-2.7-0.7c-1.4,0-2.7,0.4-3.8,1.3s-1.8,2-2.1,3.4c-1.1,0.3-2,0.8-2.7,1.7
	C1,9.2,0.6,10.2,0.6,11.4z M7,15.5c0,0.2,0.1,0.4,0.2,0.6c0.2,0.2,0.4,0.2,0.6,0.2c0.2,0,0.4-0.1,0.6-0.2s0.2-0.4,0.2-0.6
	s-0.1-0.4-0.2-0.6c-0.2-0.2-0.4-0.2-0.6-0.2s-0.4,0.1-0.6,0.2S7,15.3,7,15.5z M7,19.1c0,0.2,0.1,0.4,0.2,0.6
	c0.2,0.2,0.4,0.2,0.6,0.2c0.2,0,0.4-0.1,0.6-0.2c0.2-0.2,0.2-0.4,0.2-0.6s0-0.4-0.2-0.6S8,18.3,7.8,18.3c-0.2,0-0.4,0.1-0.6,0.2
	S7,18.9,7,19.1z M10.2,17.4c0,0.2,0.1,0.4,0.2,0.6s0.4,0.3,0.6,0.3c0.2,0,0.4-0.1,0.6-0.3s0.2-0.4,0.2-0.6s-0.1-0.4-0.2-0.6
	s-0.4-0.2-0.6-0.2c-0.2,0-0.4,0.1-0.6,0.2S10.2,17.2,10.2,17.4z M10.2,13.8c0,0.2,0.1,0.4,0.2,0.6s0.4,0.2,0.6,0.2
	c0.2,0,0.4-0.1,0.6-0.2s0.2-0.4,0.2-0.6s-0.1-0.4-0.2-0.6S11.2,13,11,13c-0.2,0-0.4,0.1-0.6,0.2S10.2,13.6,10.2,13.8z M10.2,21.1
	c0,0.2,0.1,0.4,0.2,0.6s0.4,0.2,0.6,0.2c0.2,0,0.4-0.1,0.6-0.2s0.2-0.4,0.2-0.6s-0.1-0.4-0.2-0.6s-0.4-0.2-0.6-0.2
	c-0.2,0-0.4,0.1-0.6,0.2C10.3,20.7,10.2,20.9,10.2,21.1z M13.4,15.5c0,0.2,0.1,0.4,0.2,0.6c0.2,0.2,0.4,0.2,0.6,0.2s0.4-0.1,0.6-0.2
	c0.2-0.2,0.2-0.4,0.2-0.6s-0.1-0.4-0.2-0.6c-0.2-0.2-0.4-0.2-0.6-0.2s-0.4,0.1-0.6,0.2C13.5,15.1,13.4,15.3,13.4,15.5z M13.4,19.1
	c0,0.2,0.1,0.4,0.2,0.6s0.4,0.2,0.6,0.2s0.4-0.1,0.6-0.2c0.2-0.2,0.2-0.4,0.2-0.6s-0.1-0.4-0.2-0.6c-0.2-0.2-0.4-0.2-0.6-0.2
	s-0.4,0.1-0.6,0.2S13.4,18.9,13.4,19.1z M14.4,3.5c0.7-0.7,1.5-1,2.5-1s1.8,0.4,2.5,1s1,1.5,1,2.5c0,0.6-0.2,1.2-0.5,1.8
	c-1-1-2.1-1.4-3.5-1.4h-0.3C15.8,5.3,15.3,4.3,14.4,3.5z"/>
</svg>
