<?xml version="1.0" encoding="utf-8"?>
<!-- Generator: Adobe Illustrator 22.0.1, SVG Export Plug-In . SVG Version: 6.00 Build 0)  -->
<svg version="1.1" id="Layer_1" xmlns="http://www.w3.org/2000/svg" xmlns:xlink="http://www.w3.org/1999/xlink" x="0px" y="0px"
	 viewBox="0 0 30 25.2" style="enable-background:new 0 0 30 25.2;" xml:space="preserve">
<style type="text/css">
	.st0{fill:#FFFFFF;}
</style>
<path class="st0" d="M0.3,20.9c0,0.2,0.1,0.4,0.2,0.6s0.4,0.2,0.6,0.2h18.7c0.2,0,0.4-0.1,0.6-0.2s0.2-0.4,0.2-0.6s-0.1-0.4-0.2-0.6
	C20.2,20,20,20,19.8,20H1.2c-0.2,0-0.5,0.1-0.6,0.2S0.3,20.5,0.3,20.9z M2.9,17.6c0,0.2,0.1,0.4,0.2,0.6c0.2,0.2,0.4,0.3,0.6,0.3
	h18.7c0.2,0,0.4-0.1,0.6-0.2s0.2-0.4,0.2-0.6s-0.1-0.4-0.2-0.6c-0.2-0.2-0.4-0.2-0.6-0.2H3.8c-0.2,0-0.4,0.1-0.6,0.2
	C3,17.2,2.9,17.5,2.9,17.6z M3.1,15.2c0,0.1,0,0.1,0.2,0.1h1.4c0.1,0,0.1-0.1,0.2-0.2c0.2-0.5,0.6-0.9,1.1-1.3s1-0.5,1.6-0.6L8,13.4
	c0.1,0,0.2-0.1,0.2-0.2l0.1-0.5c0.1-1.1,0.6-2,1.4-2.7c0.8-0.7,1.8-1.1,2.9-1.1s2,0.4,2.8,1.1c0.8,0.7,1.3,1.6,1.4,2.7l0.1,0.6
	c0,0.1,0.1,0.2,0.2,0.2h1.6c0.6,0,1.2,0.2,1.8,0.5c0.5,0.3,0.9,0.8,1.2,1.4c0.1,0.1,0.1,0.2,0.2,0.2h1.4c0.1,0,0.2-0.1,0.1-0.2
	l-0.2-0.6c0.8-0.9,1.1-2,1.1-3.3c0-0.7-0.1-1.4-0.4-2s-0.6-1.2-1.1-1.7s-1-0.8-1.7-1.1s-1.3-0.4-2-0.4c-1.5,0-2.8,0.6-3.8,1.7
	c-0.9-0.4-1.7-0.6-2.7-0.6c-1.4,0-2.6,0.4-3.7,1.3s-1.8,2-2.1,3.4C4.9,12.4,3.7,13.4,3.1,15.2C3.1,15.1,3.1,15.2,3.1,15.2z
	 M4.7,23.9c0,0.2,0.1,0.4,0.3,0.6c0.1,0.2,0.3,0.3,0.6,0.3h18.7c0.2,0,0.4-0.1,0.6-0.2s0.2-0.4,0.2-0.6s-0.1-0.4-0.2-0.6
	c-0.2-0.1-0.4-0.2-0.6-0.2H5.6c-0.2,0-0.4,0.1-0.6,0.2C4.8,23.5,4.7,23.6,4.7,23.9z M11.3,4.4c0,0.2,0.1,0.4,0.2,0.6l0.6,0.6
	c0.2,0.2,0.4,0.3,0.6,0.3s0.4-0.1,0.6-0.2c0.2-0.2,0.3-0.4,0.3-0.6s-0.1-0.4-0.2-0.6L12.8,4c-0.2-0.2-0.4-0.3-0.6-0.3
	c-0.2,0-0.4,0.1-0.6,0.2C11.3,3.9,11.3,4.2,11.3,4.4z M16.6,8.8c0.7-0.7,1.5-1,2.4-1c1,0,1.8,0.4,2.5,1s1,1.5,1,2.5
	c0,0.6-0.2,1.2-0.5,1.8c-1-0.9-2.1-1.4-3.5-1.4h-0.3C18,10.6,17.4,9.6,16.6,8.8z M18.2,3.5c0,0.2,0.1,0.4,0.2,0.6
	c0.2,0.2,0.4,0.2,0.6,0.2s0.5-0.1,0.6-0.2s0.2-0.3,0.2-0.6v-2c0-0.2-0.1-0.4-0.3-0.6c0-0.2-0.3-0.3-0.5-0.3S18.6,0.8,18.4,1
	s-0.2,0.4-0.2,0.6L18.2,3.5L18.2,3.5z M23.7,5.8c0,0.2,0.1,0.4,0.2,0.6c0.4,0.4,0.8,0.4,1.2,0L26.5,5c0.2-0.2,0.2-0.4,0.2-0.6
	S26.6,4,26.5,3.8c-0.2-0.2-0.4-0.2-0.6-0.2s-0.4,0.1-0.6,0.2l-1.5,1.5C23.8,5.4,23.7,5.7,23.7,5.8z M24.5,17.6
	c0,0.2,0.1,0.4,0.3,0.6l0.6,0.6c0.2,0.2,0.4,0.2,0.6,0.2s0.4-0.1,0.6-0.2c0.2-0.2,0.2-0.4,0.2-0.6s-0.1-0.4-0.2-0.6L26,16.9
	c-0.2-0.2-0.4-0.2-0.6-0.2s-0.4,0.1-0.6,0.2C24.6,17.1,24.5,17.4,24.5,17.6z M26,11.4c0,0.2,0.1,0.4,0.3,0.6
	c0.1,0.2,0.4,0.2,0.6,0.2h2c0.2,0,0.4-0.1,0.6-0.2s0.2-0.4,0.2-0.6c0-0.2-0.1-0.4-0.2-0.6c-0.2-0.2-0.4-0.2-0.6-0.2h-2
	c-0.2,0-0.4,0.1-0.6,0.2C26,10.9,26,11.1,26,11.4z"/>
</svg>
