<?xml version="1.0"?>
<svg xmlns="http://www.w3.org/2000/svg" height="512px" viewBox="0 0 512 512" width="512px"><path d="m497.015625 475.46875c-5.859375-5.859375-15.355469-5.859375-21.214844 0-5.859375 5.855469-5.859375 15.351562 0 21.210938l9.910157 9.910156c2.925781 2.929687 6.765624 4.394531 10.605468 4.394531 3.835938 0 7.675782-1.464844 10.605469-4.394531 5.859375-5.859375 5.859375-15.355469 0-21.214844zm0 0" fill="#FFFFFF"/><path d="m256.027344 471.53125c-8.285156 0-15 6.714844-15 15v10.46875c0 8.285156 6.714844 15 15 15 8.28125 0 15-6.714844 15-15v-10.46875c0-8.285156-6.714844-15-15-15zm0 0" fill="#FFFFFF"/><path d="m256.027344 40.46875c8.28125 0 15-6.714844 15-15v-10.46875c0-8.285156-6.71875-15-15-15-8.285156 0-15 6.714844-15 15v10.46875c0 8.285156 6.714844 15 15 15zm0 0" fill="#FFFFFF"/><path d="m486.53125 271.039062h10.46875c8.285156 0 15-6.714843 15-15 0-8.28125-6.714844-15-15-15h-10.46875c-8.285156 0-15 6.71875-15 15 0 8.285157 6.714844 15 15 15zm0 0" fill="#FFFFFF"/><path d="m15 271.039062h10.46875c8.285156 0 15-6.714843 15-15 0-8.28125-6.714844-15-15-15h-10.46875c-8.285156 0-15 6.71875-15 15 0 8.285157 6.714844 15 15 15zm0 0" fill="#FFFFFF"/><path d="m15.804688 476.464844-9.910157 9.90625c-5.8554685 5.859375-5.8593748 15.355468 0 21.214844 2.929688 2.929687 6.769531 4.394531 10.609375 4.394531 3.835938 0 7.675782-1.464844 10.605469-4.394531l9.90625-9.90625c5.859375-5.855469 5.859375-15.355469 0-21.214844-5.855469-5.855469-15.355469-5.855469-21.210937 0zm0 0" fill="#FFFFFF"/><path d="m486.664062 41.84375c3.839844 0 7.679688-1.464844 10.605469-4.394531l9.910157-9.90625c5.855468-5.859375 5.855468-15.355469 0-21.214844-5.859376-5.859375-15.355469-5.855469-21.214844 0l-9.90625 9.910156c-5.859375 5.855469-5.859375 15.355469 0 21.210938 2.929687 2.929687 6.765625 4.394531 10.605468 4.394531zm0 0" fill="#FFFFFF"/><path d="m466.761719 46.746094c-5.859375-5.855469-15.355469-5.855469-21.214844 0l-103.558594 103.5625c-6.410156-5.226563-13.300781-9.882813-20.601562-13.890625l5.960937-13.921875c3.257813-7.613282-.273437-16.429688-7.890625-19.6875-7.613281-3.261719-16.433593.269531-19.691406 7.886718l-6.109375 14.28125c-7.3125-2.105468-14.875-3.605468-22.628906-4.460937v-51.898437c0-8.28125-6.714844-15-15-15s-15 6.71875-15 15v51.890624c-8.046875.882813-15.882813 2.46875-23.449219 4.695313l-6.207031-14.507813c-3.261719-7.617187-12.078125-11.148437-19.691406-7.890624-7.617188 3.261718-11.148438 12.078124-7.890626 19.691406l6.125 14.3125c-6.71875 3.742187-13.089843 8.03125-19.054687 12.816406l-103.628906-103.628906c-5.855469-5.859375-15.351563-5.855469-21.210938 0-5.859375 5.859375-5.859375 15.355468 0 21.214844l103.625 103.625c-4.894531 6.097656-9.277343 12.621093-13.078125 19.511718l-14.214844-6.085937c-7.621093-3.261719-16.433593.273437-19.695312 7.890625-3.257812 7.613281.273438 16.433594 7.890625 19.691406l14.515625 6.210938c-2.15625 7.421874-3.691406 15.101562-4.554688 22.984374h-51.886718c-8.285156 0-15 6.71875-15 15 0 8.285157 6.714844 15 15 15h51.894531c.867187 7.878907 2.410156 15.558594 4.566406 22.976563l-14.535156 6.222656c-7.617187 3.257813-11.148437 12.074219-7.890625 19.691407 2.4375 5.691406 7.976562 9.101562 13.796875 9.101562 1.972656 0 3.972656-.390625 5.898437-1.214844l14.25-6.097656c3.964844 7.171875 8.554688 13.949219 13.699219 20.261719l-103.984375 103.972656c-5.855468 5.859375-5.859375 15.355469 0 21.214844 2.929688 2.929687 6.769532 4.394531 10.605469 4.394531 3.839844 0 7.679687-1.464844 10.605469-4.390625l104.148437-104.136719c5.730469 4.523438 11.839844 8.59375 18.257813 12.164063l-6.144532 14.359375c-3.261718 7.617187.273438 16.433594 7.890626 19.691406 1.921874.824219 3.921874 1.214844 5.894531 1.214844 5.820312 0 11.359375-3.414063 13.796875-9.105469l6.230468-14.558594c7.558594 2.222657 15.386719 3.808594 23.425782 4.6875v51.890625c0 8.285156 6.714844 15 15 15s15-6.714844 15-15v-51.894531c7.746094-.851563 15.304687-2.351563 22.609375-4.453125l6.132812 14.328125c2.433594 5.691406 7.972657 9.105469 13.796875 9.105469 1.96875 0 3.96875-.390625 5.894532-1.214844 7.613281-3.261719 11.148437-12.074219 7.886718-19.691406l-5.976562-13.96875c7.0625-3.871094 13.738281-8.355469 19.972656-13.375l103.949219 103.957031c2.929687 2.929687 6.765625 4.390625 10.605469 4.390625 3.839843 0 7.679687-1.464844 10.605468-4.390625 5.859375-5.859375 5.859375-15.355469 0-21.214844l-103.984375-103.988281c4.796875-6.003906 9.097657-12.417969 12.839844-19.183594l14.09375 6.035156c1.925781.824219 3.929687 1.210938 5.898437 1.210938 5.820313 0 11.359376-3.410156 13.796876-9.101562 3.257812-7.617188-.273438-16.433594-7.890626-19.691407l-14.359374-6.144531c2.167968-7.445312 3.71875-15.148438 4.589843-23.054688h51.894531c8.285157 0 15-6.714843 15-15 0-8.28125-6.714843-15-15-15h-51.886718c-.867188-7.90625-2.410156-15.613281-4.578125-23.058593l14.339843-6.136719c7.617188-3.257812 11.148438-12.074219 7.890626-19.691406-3.261719-7.617188-12.078126-11.148438-19.695313-7.890625l-14.054687 6.015625c-3.617188-6.542969-7.753907-12.761719-12.355469-18.59375l103.71875-103.722656c5.855469-5.859376 5.855469-15.355469 0-21.214844zm-104.441407 209.253906c0 58.625-47.695312 106.316406-106.320312 106.316406s-106.320312-47.691406-106.320312-106.316406 47.695312-106.316406 106.320312-106.316406 106.320312 47.691406 106.320312 106.316406zm0 0" fill="#FFFFFF"/><path d="m15.507812 36.699219c2.929688 2.929687 6.769532 4.394531 10.605469 4.394531 3.839844 0 7.679688-1.464844 10.609375-4.394531 5.855469-5.855469 5.855469-15.355469 0-21.214844l-9.910156-9.90625c-5.859375-5.859375-15.355469-5.859375-21.210938 0-5.859374 5.855469-5.859374 15.355469 0 21.210937zm0 0" fill="#FFFFFF"/><path d="m186.503906 421.339844c-7.617187-3.261719-16.433594.273437-19.691406 7.890625l-4.121094 9.625c-3.257812 7.613281.273438 16.429687 7.890625 19.691406 1.925781.820313 3.925781 1.210937 5.894531 1.210937 5.820313 0 11.359376-3.410156 13.796876-9.101562l4.117187-9.625c3.261719-7.617188-.269531-16.429688-7.886719-19.691406zm0 0" fill="#FFFFFF"/><path d="m344.324219 429.230469c-3.261719-7.617188-12.078125-11.148438-19.691407-7.890625-7.617187 3.261718-11.148437 12.078125-7.890624 19.691406l4.121093 9.625c2.433594 5.691406 7.972657 9.101562 13.796875 9.101562 1.96875 0 3.96875-.390624 5.894532-1.210937 7.617187-3.261719 11.148437-12.078125 7.886718-19.695313zm0 0" fill="#FFFFFF"/><path d="m166.8125 82.828125c2.433594 5.691406 7.972656 9.101563 13.796875 9.101563 1.96875 0 3.96875-.390626 5.894531-1.214844 7.617188-3.257813 11.148438-12.074219 7.890625-19.691406l-4.121093-9.621094c-3.257813-7.617188-12.074219-11.152344-19.691407-7.890625-7.617187 3.257812-11.148437 12.074219-7.886719 19.691406zm0 0" fill="#FFFFFF"/><path d="m324.632812 90.714844c1.921876.824218 3.925782 1.214844 5.894532 1.214844 5.820312 0 11.359375-3.410157 13.796875-9.101563l4.117187-9.625c3.261719-7.613281-.269531-16.433594-7.886718-19.691406-7.617188-3.261719-16.433594.269531-19.691407 7.886719l-4.121093 9.625c-3.257813 7.617187.273437 16.433593 7.890624 19.691406zm0 0" fill="#FFFFFF"/><path d="m67.160156 350.128906c1.96875 0 3.96875-.390625 5.894532-1.214844l9.625-4.117187c7.617187-3.261719 11.148437-12.078125 7.886718-19.695313-3.257812-7.613281-12.078125-11.144531-19.691406-7.886718l-9.625 4.121094c-7.617188 3.257812-11.148438 12.074218-7.886719 19.691406 2.433594 5.691406 7.972657 9.101562 13.796875 9.101562zm0 0" fill="#FFFFFF"/><path d="m61.25 190.746094 9.625 4.117187c1.925781.824219 3.925781 1.214844 5.894531 1.214844 5.824219 0 11.363281-3.410156 13.796875-9.101563 3.261719-7.617187-.269531-16.433593-7.886718-19.691406l-9.625-4.121094c-7.617188-3.261718-16.433594.273438-19.691407 7.890626-3.261719 7.617187.269531 16.429687 7.886719 19.691406zm0 0" fill="#FFFFFF"/><path d="m450.550781 321.335938-9.625-4.121094c-7.613281-3.261719-16.433593.273437-19.691406 7.886718-3.257813 7.617188.273437 16.433594 7.886719 19.695313l9.625 4.117187c1.925781.824219 3.929687 1.214844 5.898437 1.214844 5.820313 0 11.359375-3.410156 13.796875-9.101562 3.257813-7.617188-.273437-16.433594-7.890625-19.691406zm0 0" fill="#FFFFFF"/><path d="m438.75 163.164062-9.625 4.121094c-7.617188 3.261719-11.148438 12.074219-7.890625 19.691406 2.4375 5.691407 7.976563 9.101563 13.796875 9.101563 1.972656 0 3.972656-.390625 5.898438-1.214844l9.625-4.117187c7.613281-3.261719 11.144531-12.074219 7.886718-19.691406-3.261718-7.617188-12.078125-11.144532-19.691406-7.890626zm0 0" fill="#FFFFFF"/></svg>
