<?xml version="1.0" encoding="utf-8"?>
<!-- Generator: Adobe Illustrator 22.0.1, SVG Export Plug-In . SVG Version: 6.00 Build 0)  -->
<svg version="1.1" id="Layer_1" xmlns="http://www.w3.org/2000/svg" xmlns:xlink="http://www.w3.org/1999/xlink" x="0px" y="0px"
	 viewBox="0 0 22.7 22.8" style="enable-background:new 0 0 22.7 22.8;" xml:space="preserve">
<style type="text/css">
	.st0{fill:#FFFFFF;}
</style>
<path class="st0" d="M0.6,11.4c0-0.2,0.1-0.4,0.2-0.6c0.2-0.2,0.4-0.2,0.6-0.2h2c0.2,0,0.4,0.1,0.6,0.2c0.2,0.2,0.2,0.4,0.2,0.6
	s0,0.5-0.2,0.6c-0.2,0.2-0.3,0.2-0.6,0.2h-2c-0.2,0-0.4-0.1-0.6-0.2C0.7,11.9,0.6,11.7,0.6,11.4z M3.4,18.3c0-0.2,0.1-0.4,0.2-0.6
	l1.5-1.4c0.1-0.2,0.4-0.2,0.6-0.2s0.4,0.1,0.6,0.2s0.2,0.3,0.2,0.6c0,0.2-0.1,0.5-0.2,0.6l-1.4,1.4c-0.4,0.3-0.8,0.3-1.2,0
	C3.5,18.8,3.4,18.6,3.4,18.3z M3.4,4.5c0-0.2,0.1-0.4,0.2-0.6C3.8,3.7,4,3.7,4.2,3.7c0.2,0,0.4,0.1,0.6,0.2l1.4,1.5
	C6.4,5.5,6.4,5.8,6.4,6S6.3,6.4,6.2,6.6S6,6.8,5.7,6.8c-0.2,0-0.4-0.1-0.6-0.2L3.7,5.1C3.5,5,3.4,4.7,3.4,4.5z M6,11.4
	c0-0.9,0.2-1.8,0.7-2.6s1.1-1.4,1.9-1.9s1.7-0.7,2.6-0.7c0.7,0,1.4,0.1,2,0.4c0.6,0.3,1.2,0.6,1.7,1.1s0.8,1,1.1,1.7
	c0.3,0.6,0.4,1.3,0.4,2c0,0.9-0.2,1.8-0.7,2.6c-0.5,0.8-1.1,1.4-1.9,1.9c-0.8,0.5-1.7,0.7-2.6,0.7s-1.8-0.2-2.6-0.7
	c-0.8-0.5-1.4-1.1-1.9-1.9C6.2,13.2,6,12.4,6,11.4z M7.7,11.4c0,1,0.3,1.8,1,2.5s1.5,1,2.5,1s1.8-0.4,2.5-1s1-1.5,1-2.5
	s-0.4-1.8-1-2.5c-0.7-0.7-1.5-1-2.5-1s-1.8,0.3-2.5,1S7.7,10.5,7.7,11.4z M10.3,19.2c0-0.2,0.1-0.4,0.2-0.6s0.4-0.2,0.6-0.2
	c0.2,0,0.4,0.1,0.6,0.2s0.2,0.4,0.2,0.6v2c0,0.2-0.1,0.5-0.2,0.6S11.3,22,11.1,22s-0.4-0.1-0.6-0.2c-0.2-0.2-0.2-0.4-0.2-0.6V19.2z
	 M10.3,3.7v-2c0-0.2,0.1-0.4,0.2-0.6s0.5-0.3,0.7-0.3s0.4,0.1,0.6,0.2S12,1.4,12,1.6v2.1c0,0.2-0.1,0.4-0.2,0.6s-0.4,0.2-0.6,0.2
	s-0.4-0.1-0.6-0.2S10.3,3.9,10.3,3.7z M15.9,16.9c0-0.2,0.1-0.4,0.2-0.6c0.1-0.2,0.3-0.2,0.6-0.2c0.2,0,0.4,0.1,0.6,0.2l1.5,1.4
	c0.2,0.2,0.2,0.4,0.2,0.6s-0.1,0.4-0.2,0.6c-0.4,0.3-0.8,0.3-1.2,0l-1.4-1.4C15.9,17.3,15.9,17.1,15.9,16.9z M15.9,6
	c0-0.2,0.1-0.4,0.2-0.6l1.4-1.5c0.2-0.2,0.4-0.2,0.6-0.2s0.4,0.1,0.6,0.2c0.2,0.2,0.2,0.4,0.2,0.6S18.8,5,18.7,5.1l-1.5,1.5
	c-0.2,0.2-0.4,0.2-0.6,0.2S16.2,6.7,16,6.6C15.8,6.5,15.9,6.2,15.9,6z M18.1,11.4c0-0.2,0.1-0.4,0.2-0.6c0.2-0.2,0.4-0.2,0.6-0.2h2
	c0.2,0,0.4,0.1,0.6,0.3s0.3,0.4,0.3,0.6s-0.1,0.4-0.3,0.6s-0.4,0.2-0.6,0.2h-2c-0.2,0-0.4-0.1-0.6-0.2S18.1,11.7,18.1,11.4z"/>
</svg>
