<?xml version="1.0" encoding="utf-8"?>
<!-- Generator: Adobe Illustrator 22.0.1, SVG Export Plug-In . SVG Version: 6.00 Build 0)  -->
<svg version="1.1" id="Layer_1" xmlns="http://www.w3.org/2000/svg" xmlns:xlink="http://www.w3.org/1999/xlink" x="0px" y="0px"
	 viewBox="0 0 16.1 15.9" style="enable-background:new 0 0 16.1 15.9;" xml:space="preserve">
<style type="text/css">
	.st0{fill:#FFFFFF;}
</style>
<path class="st0" d="M0.9,7.9c0-1,0.2-1.9,0.6-2.8S2.4,3.5,3,2.8s1.4-1.1,2.3-1.5c0.9-0.4,1.8-0.6,2.8-0.6h1.1
	c0.2,0,0.2,0.1,0.2,0.3v0.9c0,1.3,0.5,2.4,1.4,3.2C11.7,6,12.7,6.5,14,6.5l0.8,0.1C15,6.6,15,6.7,15,6.8v1c0,1.3-0.3,2.5-0.9,3.6
	s-1.5,2-2.6,2.6s-2.3,1-3.6,1c-1,0-1.9-0.2-2.8-0.6s-1.6-0.9-2.3-1.5c-0.6-0.6-1.1-1.4-1.5-2.3C1.1,9.8,0.9,8.8,0.9,7.9z M2.7,7.9
	c0,0.8,0.1,1.5,0.4,2.2c0.3,0.7,0.7,1.2,1.2,1.7s1.1,0.8,1.7,1.1c0.6,0.3,1.3,0.4,1.9,0.4c0.6,0,1.2-0.1,1.8-0.3s1.1-0.5,1.6-1
	s0.9-0.9,1.3-1.6c0.4-0.6,0.6-1.3,0.7-2.1c-1.6-0.3-2.9-1-3.9-2.1S8,3.9,7.8,2.4C6.8,2.5,6,2.7,5.2,3.3c-0.8,0.5-1.4,1.2-1.8,2
	S2.7,7,2.7,7.9z"/>
</svg>
