<?xml version="1.0" encoding="utf-8"?>
<!-- Generator: Adobe Illustrator 22.0.1, SVG Export Plug-In . SVG Version: 6.00 Build 0)  -->
<svg version="1.1" id="Layer_1" xmlns="http://www.w3.org/2000/svg" xmlns:xlink="http://www.w3.org/1999/xlink" x="0px" y="0px"
	 viewBox="0 0 25.8 20.8" style="enable-background:new 0 0 25.8 20.8;" xml:space="preserve">
<style type="text/css">
	.st0{fill:#FFFFFF;}
</style>
<path class="st0" d="M0.7,16.1c0,0.2,0.1,0.4,0.2,0.6c0.2,0.2,0.4,0.2,0.6,0.2h18.6c0.2,0,0.4-0.1,0.6-0.2c0.2-0.2,0.2-0.4,0.2-0.6
	c0-0.2-0.1-0.4-0.2-0.6c-0.2-0.2-0.4-0.2-0.6-0.2H1.5c-0.2,0-0.4,0.1-0.6,0.2C0.8,15.6,0.7,15.9,0.7,16.1z M3.3,13
	c0,0.2,0.1,0.4,0.3,0.6c0.1,0.2,0.3,0.3,0.6,0.3h18.6c0.2,0,0.4-0.1,0.6-0.2s0.2-0.4,0.2-0.6c0-0.2-0.1-0.4-0.2-0.6
	s-0.4-0.2-0.6-0.2H4.1c-0.2,0-0.4,0.1-0.6,0.2C3.3,12.6,3.3,12.7,3.3,13z M3.4,10.6L3.4,10.6c0,0.1,0,0.2,0.1,0.2H5
	c0.1,0,0.1-0.1,0.2-0.1c0.2-0.5,0.6-0.9,1.1-1.3c0.5-0.3,1-0.5,1.6-0.6l0.5-0.1c0.1,0,0.2-0.1,0.2-0.2L8.6,8c0.1-1.1,0.6-2,1.4-2.7
	c0.8-0.7,1.8-1.1,2.8-1.1c1.1,0,2,0.4,2.8,1.1s1.3,1.6,1.4,2.7L17,8.5c0,0.1,0.1,0.2,0.2,0.2h1.6c0.6,0,1.2,0.2,1.8,0.5
	c0.5,0.3,0.9,0.8,1.2,1.4c0.1,0.1,0.1,0.1,0.2,0.1h1.4c0.1,0,0.2-0.1,0.1-0.2c-0.2-0.6-0.4-0.9-0.5-1.1c0.7-0.6,1.2-1.5,1.5-2.6
	l0.2-0.7c0-0.1,0-0.1,0-0.2S24.7,6,24.6,6L24,5.8c-0.9-0.3-1.6-0.8-2-1.6s-0.6-1.6-0.4-2.6L21.7,1c0-0.1,0-0.2-0.1-0.2l-0.8-0.2
	c-1.1-0.3-2.2-0.2-3.2,0.3S15.6,2,15,3c-0.8-0.3-1.6-0.5-2.3-0.5c-1.4,0-2.6,0.4-3.7,1.3s-1.8,2-2.1,3.4C6.1,7.4,5.4,7.8,4.7,8.4
	S3.7,9.7,3.4,10.6z M5,19.1c0,0.2,0.1,0.4,0.3,0.6C5.4,19.9,5.6,20,5.9,20h18.6c0.2,0,0.4-0.1,0.6-0.2s0.2-0.4,0.2-0.6
	c0-0.2-0.1-0.4-0.2-0.6s-0.4-0.2-0.6-0.2H5.9c-0.2,0-0.4,0.1-0.6,0.2C5.1,18.7,5,18.9,5,19.1z M16.5,3.9c0.4-0.6,0.8-1,1.4-1.3
	s1.2-0.4,1.9-0.4c-0.1,1,0.2,2,0.7,2.9c0.5,0.9,1.3,1.6,2.2,2c-0.1,0.4-0.4,0.7-0.8,1.1C21,7.4,20,7,18.8,7h-0.3
	C18.2,5.7,17.5,4.7,16.5,3.9z"/>
</svg>
